ooooo   ooooo oooooooooo.   ooooo         o8o  ooooooooooooo oooooooooooo
`888'   `888' `888'   `Y8b  `888'         `"'  8'   888   `8 `888'     `8
888     888   888      888  888         oooo       888       888
888ooooo888   888      888  888         `888       888       888oooo8
888     888   888      888  888          888       888       888    "
888     888   888     d88'  888       o  888       888       888       o
o888o   o888o o888bood8P'   o888ooooood8 o888o     o888o     o888ooooood8

Gnomeo.and.Juliet.2011.720p.BRRip.x264.AC3-HDLiTE

General:

Format                           : Matroska
DXVA Compatible                  : Yes
File size                        : 1.60 GiB
Duration                         : 1h 23mn
Overall bit rate                 : 2 730 Kbps
Encoded By                       : Deaftone
Source                           : BluRay.1080p.DTS.x264-CHD
IMDB                             : http://www.imdb.com/title/tt0377981/

Video
ID                               : 1
Format                           : AVC
Format/Info                      : Advanced Video Codec
Format profile                   : High@L4.1
Format settings, CABAC           : Yes
Format settings, ReFrames        : 5 frames
Format settings, GOP             : M=7, N=49
Codec ID                         : V_MPEG4/ISO/AVC
Duration                         : 1h 23mn
Bit rate                         : 2 280 Kbps
Width                            : 1 280 pixels
Height                           : 688 pixels
Display aspect ratio             : 1.860
Frame rate                       : 23.976 fps
Color space                      : YUV
Chroma subsampling               : 4:2:0
Bit depth                        : 8 bits
Scan type                        : Progressive
Bits/(Pixel*Frame)               : 0.108
Stream size                      : 1.30 GiB (82%)
Writing library                  : x264 core 112 r1834 a51816a

Audio
ID                               : 2
Format                           : AC-3
Format/Info                      : Audio Coding 3
Mode extension                   : CM (complete main)
Codec ID                         : A_AC3
Duration                         : 1h 23mn
Bit rate mode                    : Constant
Bit rate                         : 448 Kbps
Channel(s)                       : 6 channels
Channel positions                : Front: L C R, Side: L R, LFE
Sampling rate                    : 48.0 KHz
Bit depth                        : 16 bits
Compression mode                 : Lossy
Stream size                      : 269 MiB (16%)
Language                         : English

Subtitles:                       : English, Dutch, Spanish, Romanian